<?xml version="1.0" standalone="no"?>
<!DOCTYPE svg PUBLIC "-//W3C//DTD SVG 20010904//EN"
 "http://www.w3.org/TR/2001/REC-SVG-20010904/DTD/svg10.dtd">
<svg version="1.0" xmlns="http://www.w3.org/2000/svg"
 width="512.000000pt" height="512.000000pt" viewBox="0 0 512.000000 512.000000"
 preserveAspectRatio="xMidYMid meet">

<g transform="translate(0.000000,512.000000) scale(0.100000,-0.100000)"
fill="#000000" stroke="none">
<path d="M245 4714 c-42 -21 -81 -61 -100 -99 -13 -29 -15 -113 -15 -634 0
-588 0 -601 20 -611 15 -8 24 -6 40 10 19 19 20 33 20 205 l0 185 2250 0 2250
0 0 -1515 0 -1515 -27 -30 c-17 -19 -44 -35 -68 -40 -54 -13 -4256 -13 -4310
0 -24 5 -51 21 -68 40 l-27 30 0 968 c0 1041 2 1008 -51 1000 l-24 -3 -2 -985
-3 -985 23 -39 c12 -22 39 -53 60 -70 l39 -31 2208 0 2209 0 27 21 c15 11 42
37 58 58 l31 38 0 1763 0 1763 -31 38 c-16 21 -43 47 -58 58 -27 21 -34 21
-1249 26 -1098 4 -1226 7 -1257 21 -50 23 -76 51 -153 161 -37 53 -84 110
-104 127 -76 63 -51 61 -892 61 -674 0 -770 -2 -796 -16z m1621 -95 c25 -17
68 -67 114 -135 76 -109 124 -154 198 -184 32 -13 203 -16 1255 -20 l1219 -5
29 -33 29 -32 0 -180 0 -180 -2250 0 -2250 0 0 366 0 366 34 34 34 34 774 -2
774 -3 40 -26z"/>
<path d="M1739 3570 c-59 -31 -73 -62 -79 -170 l-5 -95 -144 -3 c-86 -1 -150
-7 -158 -14 -10 -8 -13 -84 -13 -364 l0 -354 -369 0 c-365 0 -368 0 -401 -23
-19 -12 -43 -38 -54 -57 -19 -32 -21 -51 -21 -245 0 -194 2 -213 21 -245 11
-19 35 -45 54 -57 33 -23 37 -23 374 -23 l341 -1 -190 -184 -190 -184 -110 -1
c-126 0 -165 -14 -202 -69 -22 -33 -23 -42 -23 -255 0 -247 4 -265 72 -306 31
-19 51 -20 299 -20 260 0 267 1 300 23 19 12 44 42 57 67 22 43 23 53 20 245
-3 181 -5 203 -24 235 -36 63 -74 80 -175 80 -49 0 -89 3 -89 8 0 4 79 83 175
175 l175 169 175 -169 c96 -92 175 -171 175 -175 0 -5 -40 -8 -89 -8 -105 0
-142 -19 -179 -90 -22 -43 -23 -53 -20 -252 3 -229 5 -236 78 -285 32 -22 40
-23 299 -23 248 0 268 1 299 20 67 41 72 60 72 298 0 238 -5 263 -64 305 -27
19 -46 22 -151 25 l-120 4 -190 184 -190 183 335 1 c374 0 381 1 428 70 21 32
22 41 22 254 0 247 -4 265 -72 306 -31 19 -51 20 -400 20 l-368 0 0 325 0 325
120 0 120 0 0 -89 c0 -101 17 -139 80 -175 34 -21 47 -21 720 -21 673 0 686 0
720 21 63 36 80 74 80 175 l0 89 120 0 120 0 0 -325 0 -325 -367 0 c-350 0
-370 -1 -401 -20 -68 -41 -72 -59 -72 -306 0 -213 1 -222 23 -254 47 -70 50
-70 454 -70 l363 0 0 -185 0 -185 -363 0 c-404 0 -407 0 -454 -70 -22 -32 -23
-41 -23 -254 0 -247 4 -265 72 -306 32 -19 52 -20 809 -20 l776 0 33 23 c19
12 43 38 54 57 19 32 21 51 21 245 0 192 -2 213 -20 244 -11 19 -33 43 -48 55
-28 20 -40 21 -403 24 l-374 3 0 184 0 185 369 0 c365 0 368 0 401 23 19 12
43 38 54 57 19 32 21 51 21 245 0 194 -2 213 -21 245 -11 19 -35 45 -54 57
-33 23 -36 23 -401 23 l-369 0 0 354 c0 280 -3 356 -13 364 -8 7 -72 13 -158
14 l-144 3 -5 95 c-4 77 -9 101 -27 126 -47 66 -19 64 -775 64 -652 -1 -685
-2 -719 -20z m1415 -81 l26 -20 0 -205 c0 -191 -1 -205 -20 -224 -20 -20 -33
-20 -700 -20 -667 0 -680 0 -700 20 -19 19 -20 33 -20 224 l0 205 26 20 c26
21 34 21 694 21 660 0 668 0 694 -21z m-1944 -2039 c29 -29 32 -50 28 -249 -3
-178 -4 -183 -27 -202 -21 -18 -42 -19 -272 -19 -236 0 -250 1 -269 20 -19 19
-20 33 -20 225 0 192 1 206 20 225 19 19 33 20 270 20 236 0 251 -1 270 -20z
m877 -2 c23 -21 23 -25 23 -225 0 -190 -1 -204 -20 -223 -19 -19 -33 -20 -269
-20 -230 0 -251 1 -272 19 -24 19 -24 21 -24 226 0 205 0 207 24 226 21 18 42
19 269 19 239 0 246 -1 269 -22z m2223 12 c31 -17 40 -67 40 -235 0 -168 -9
-218 -40 -235 -12 -6 -301 -10 -774 -10 -743 0 -756 0 -776 20 -19 19 -20 33
-20 225 0 192 1 206 20 225 20 20 33 20 776 20 473 0 762 -4 774 -10z"/>
<path d="M137 3263 c-4 -3 -7 -107 -7 -229 0 -212 1 -224 20 -234 15 -8 24 -6
40 10 19 19 20 33 20 221 0 119 -4 208 -10 220 -10 18 -50 26 -63 12z"/>
</g>
</svg>
