<?xml version="1.0" standalone="no"?>
<!DOCTYPE svg PUBLIC "-//W3C//DTD SVG 20010904//EN"
 "http://www.w3.org/TR/2001/REC-SVG-20010904/DTD/svg10.dtd">
<svg version="1.0" xmlns="http://www.w3.org/2000/svg"
 width="512.000000pt" height="512.000000pt" viewBox="0 0 512.000000 512.000000"
 preserveAspectRatio="xMidYMid meet">

<g transform="translate(0.000000,512.000000) scale(0.100000,-0.100000)"
fill="#000000" stroke="none">
<path d="M160 5027 c-49 -16 -133 -102 -148 -153 -18 -60 -18 -3608 0 -3668
16 -55 99 -138 154 -154 31 -9 240 -12 828 -12 432 0 786 -2 786 -4 0 -2 -76
-141 -170 -309 l-170 -306 0 -90 0 -91 -80 0 -80 0 0 -80 0 -80 1280 0 1280 0
0 80 0 80 -80 0 -80 0 0 91 0 90 -170 306 c-93 168 -170 307 -170 309 0 2 355
4 788 4 897 0 849 -4 925 80 24 26 49 66 55 88 17 57 17 3607 0 3664 -6 22
-31 62 -55 88 -79 88 164 80 -2497 79 -1691 -1 -2371 -4 -2396 -12z m4775
-172 l25 -24 0 -1496 0 -1495 -2400 0 -2400 0 0 1495 0 1496 25 24 24 25 2351
0 2351 0 24 -25z m23 -3395 c-3 -195 -5 -221 -21 -237 -17 -17 -126 -18 -2377
-18 -2251 0 -2360 1 -2377 18 -16 16 -18 42 -21 237 l-3 220 2401 0 2401 0 -3
-220z m-1780 -472 c16 -29 86 -154 155 -278 l126 -225 -449 -3 c-248 -1 -652
-1 -900 0 l-449 3 101 180 c56 99 125 224 155 278 l55 97 588 0 588 0 30 -52z
m342 -708 l0 -40 -960 0 -960 0 0 40 0 40 960 0 960 0 0 -40z"/>
<path d="M3040 4560 l0 -80 840 0 840 0 0 80 0 80 -840 0 -840 0 0 -80z"/>
<path d="M1140 4304 c-228 -48 -421 -238 -480 -470 -18 -70 -20 -112 -20 -474
0 -362 2 -404 20 -474 58 -229 237 -408 466 -466 338 -87 687 124 774 466 11
43 20 94 20 116 l0 38 -78 0 -78 0 -13 -75 c-34 -203 -194 -363 -398 -397
-235 -39 -474 118 -535 351 -24 92 -26 771 -3 869 22 92 60 159 131 229 189
190 480 189 670 -1 76 -76 118 -157 136 -263 l12 -73 78 0 78 0 0 38 c0 62
-36 187 -77 265 -25 48 -63 98 -113 148 -155 156 -374 220 -590 173z"/>
<path d="M3040 4240 l0 -80 840 0 840 0 0 80 0 80 -840 0 -840 0 0 -80z"/>
<path d="M3760 3920 l0 -80 200 0 200 0 0 80 0 80 -200 0 -200 0 0 -80z"/>
<path d="M4320 3920 l0 -80 200 0 200 0 0 80 0 80 -200 0 -200 0 0 -80z"/>
<path d="M2320 3560 l0 -120 -120 0 -120 0 0 -80 0 -80 120 0 120 0 0 -120 0
-120 80 0 80 0 0 120 0 120 120 0 120 0 0 80 0 80 -120 0 -120 0 0 120 0 120
-80 0 -80 0 0 -120z"/>
<path d="M3200 3560 l0 -120 -120 0 -120 0 0 -80 0 -80 120 0 120 0 0 -120 0
-120 80 0 80 0 0 120 0 120 120 0 120 0 0 80 0 80 -120 0 -120 0 0 120 0 120
-80 0 -80 0 0 -120z"/>
<path d="M3760 2800 l0 -80 200 0 200 0 0 80 0 80 -200 0 -200 0 0 -80z"/>
<path d="M4320 2800 l0 -80 200 0 200 0 0 80 0 80 -200 0 -200 0 0 -80z"/>
<path d="M3040 2480 l0 -80 840 0 840 0 0 80 0 80 -840 0 -840 0 0 -80z"/>
<path d="M3040 2160 l0 -80 840 0 840 0 0 80 0 80 -840 0 -840 0 0 -80z"/>
</g>
</svg>
