<?xml version="1.0" standalone="no"?>
<!DOCTYPE svg PUBLIC "-//W3C//DTD SVG 20010904//EN"
 "http://www.w3.org/TR/2001/REC-SVG-20010904/DTD/svg10.dtd">
<svg version="1.0" xmlns="http://www.w3.org/2000/svg"
 width="512.000000pt" height="512.000000pt" viewBox="0 0 512.000000 512.000000"
 preserveAspectRatio="xMidYMid meet">

<g transform="translate(0.000000,512.000000) scale(0.100000,-0.100000)"
fill="#000000" stroke="none">
<path d="M348 5094 c-173 -41 -305 -179 -338 -353 -6 -32 -10 -244 -10 -517
l0 -464 2560 0 2560 0 0 478 c0 520 -3 548 -57 642 -38 64 -103 130 -165 167
-112 67 53 63 -2333 62 -1806 -1 -2169 -3 -2217 -15z m478 -605 c45 -21 84
-81 84 -129 0 -13 -9 -43 -21 -66 -21 -45 -81 -84 -129 -84 -48 0 -108 39
-129 84 -26 53 -26 79 0 132 14 30 32 48 62 63 53 26 80 26 133 0z m604 1 c45
-23 80 -80 80 -130 0 -76 -74 -150 -150 -150 -85 0 -157 81 -147 166 12 108
119 164 217 114z"/>
<path d="M2938 3138 c-48 -28 -58 -48 -232 -455 l-146 -342 0 -378 1 -378 299
698 c165 384 300 710 300 725 0 14 -9 45 -21 69 -37 77 -127 104 -201 61z"/>
<path d="M3405 2696 c-69 -30 -108 -112 -85 -180 14 -44 44 -70 378 -336 149
-118 271 -217 271 -220 0 -3 -133 -111 -296 -240 -162 -129 -308 -250 -324
-267 -15 -18 -31 -48 -34 -67 -20 -103 89 -199 187 -167 38 13 801 622 832
664 28 39 28 115 0 154 -28 39 -791 650 -828 663 -38 13 -64 12 -101 -4z"/>
</g>
</svg>
